<svg class="d-sm-block d-none" width="6098" height="264" viewBox="0 0 6098 264" fill="none" xmlns="http://www.w3.org/2000/svg"> <g clip-path="url(#clip0_2202_10842)"> <path d="M111.667 252.003H-5875V17H-5872.41L-3904.93 77.8707H-3902.49L-1940.2 138.741L-1937.76 138.893L25.9048 199.763C47.1162 200.521 67.4121 209.151 82.6724 223.839L109.835 250.035L109.987 250.186L111.667 252.003Z" fill="#F0F3F3"></path> <path d="M6098.33 17V252.003H111.668L113.346 250.338L114.262 249.278L113.346 250.338L140.662 223.839C143.561 221.114 146.613 218.539 149.665 216.268C151.802 214.754 153.938 213.24 156.227 211.877C160.653 209.151 165.383 206.88 170.419 205.063C174.082 203.7 177.896 202.489 181.711 201.732C186.9 200.521 192.088 199.915 197.429 199.763L2161.09 138.893L2163.53 138.741L4125.82 77.8707H4128.26L6095.89 17H6098.33Z" fill="#F0F3F3"></path> <path d="M6098.33 12V16.9968H6095.89L4128.41 77.8675H4125.97L2163.68 138.738L2161.24 138.89L197.58 199.76C192.239 199.912 187.051 200.669 181.862 201.729C178.047 202.637 174.232 203.697 170.57 205.06C165.687 206.877 160.956 209.148 156.378 211.874C154.089 213.237 151.953 214.751 149.816 216.265C146.612 218.536 143.56 221.11 140.812 223.836L113.498 250.334L114.413 249.274L113.498 250.334L111.819 252L109.987 250.334L109.835 250.183L82.6724 223.987C67.4121 209.3 47.1162 200.669 25.9048 199.912L-1937.76 138.89L-1940.2 138.738L-3902.49 77.8675H-3904.93L-5872.41 16.9968H-5875V12L-3902.33 73.3249L-1940.2 133.893L26.0571 194.915C48.6421 195.823 70.0059 204.909 86.1816 220.505L111.667 245.186L137.15 220.505C144.17 213.691 152.258 208.088 161.109 203.849C169.807 199.609 179.268 196.883 189.035 195.52C191.781 195.218 194.681 194.915 197.428 194.763L2163.68 133.741L4125.82 73.1735L6098.33 12Z" fill="#1464F4"></path> </g> <defs> <clipPath id="clip0_2202_10842"> <rect width="6098" height="264" fill="white"></rect> </clipPath> </defs> </svg>