<svg width="48" height="40" viewBox="0 0 48 40" fill="none" xmlns="http://www.w3.org/2000/svg">
<path d="M0 3C0 1.34315 1.34315 0 3 0H48V40H3C1.34315 40 0 38.6569 0 37V3Z" fill="#1464F4"></path>
<path d="M32 26V27H19V26H32ZM15.5 25.5C15.7652 25.5 16.0196 25.6054 16.2071 25.7929C16.3946 25.9804 16.5 26.2348 16.5 26.5C16.5 26.7652 16.3946 27.0196 16.2071 27.2071C16.0196 27.3946 15.7652 27.5 15.5 27.5C15.2348 27.5 14.9804 27.3946 14.7929 27.2071C14.6054 27.0196 14.5 26.7652 14.5 26.5C14.5 26.2348 14.6054 25.9804 14.7929 25.7929C14.9804 25.6054 15.2348 25.5 15.5 25.5ZM32 20V21H19V20H32ZM15.5 19.5C15.7652 19.5 16.0196 19.6054 16.2071 19.7929C16.3946 19.9804 16.5 20.2348 16.5 20.5C16.5 20.7652 16.3946 21.0196 16.2071 21.2071C16.0196 21.3946 15.7652 21.5 15.5 21.5C15.2348 21.5 14.9804 21.3946 14.7929 21.2071C14.6054 21.0196 14.5 20.7652 14.5 20.5C14.5 20.2348 14.6054 19.9804 14.7929 19.7929C14.9804 19.6054 15.2348 19.5 15.5 19.5ZM32 14V15H19V14H32ZM15.5 13.5C15.7652 13.5 16.0196 13.6054 16.2071 13.7929C16.3946 13.9804 16.5 14.2348 16.5 14.5C16.5 14.7652 16.3946 15.0196 16.2071 15.2071C16.0196 15.3946 15.7652 15.5 15.5 15.5C15.2348 15.5 14.9804 15.3946 14.7929 15.2071C14.6054 15.0196 14.5 14.7652 14.5 14.5C14.5 14.2348 14.6054 13.9804 14.7929 13.7929C14.9804 13.6054 15.2348 13.5 15.5 13.5Z" fill="#F7F9F9"></path>
</svg>