<svg width="24" height="24" viewBox="0 0 24 24" fill="none" xmlns="http://www.w3.org/2000/svg">
<path d="M4.99805 4.99805H17.998C18.7937 4.99805 19.5568 5.31412 20.1194 5.87673C20.682 6.43934 20.998 7.2024 20.998 7.99805V16.998C20.998 17.7937 20.682 18.5568 20.1194 19.1194C19.5568 19.682 18.7937 19.998 17.998 19.998H4.99805C4.2024 19.998 3.43934 19.682 2.87673 19.1194C2.31412 18.5568 1.99805 17.7937 1.99805 16.998V7.99805C1.99805 7.2024 2.31412 6.43934 2.87673 5.87673C3.43934 5.31412 4.2024 4.99805 4.99805 4.99805ZM4.99805 5.99805C4.51005 5.99805 4.06205 6.17305 3.71505 6.46405L11.498 11.518L19.281 6.46405C18.9216 6.16246 18.4672 5.99743 17.998 5.99805H4.99805ZM11.498 12.71L3.13205 7.27805C3.04333 7.50772 2.9979 7.75183 2.99805 7.99805V16.998C2.99805 17.5285 3.20876 18.0372 3.58383 18.4123C3.95891 18.7873 4.46761 18.998 4.99805 18.998H17.998C18.5285 18.998 19.0372 18.7873 19.4123 18.4123C19.7873 18.0372 19.998 17.5285 19.998 16.998V7.99805C19.998 7.74405 19.951 7.50105 19.864 7.27805L11.498 12.709V12.71Z" fill="#92A0B2"></path>
</svg>